# xmcd
#
# Track frame offsets:
#	150
#	21548
#	34761
#	48014
#	63149
#	79038
#	91791
#	105166
#	116248
#	128603
#	139607
#	149624
#	163266
#
# Disc length: 2313 seconds
#
# Revision: 0
# Processed by: cddbd v1.5.2PL0 Copyright (c) Steve Scherf et al.
# Submitted via: EZCDAudioConverter 8.3.2.1
#
DISCID=a609070d
DTITLE=Μεγ. ηχογραφ. απο τον κινηματογράφο-Αλ. Βουγιουκλάκη
DYEAR=2015
DGENRE=Κινηματογραφική
TTITLE0=Βουγιουκλάκη Αλίκη-Παπαμιχαήλ Δημήτρης - Η αγάπη θέλει δύο [Ν. Μαμαγκά
TTITLE0=κης-Ντ. Δημόπουλος]
TTITLE1=Βουγιουκλάκη Αλίκη-Παπαμιχαήλ Δημήτρης - Στον ήλιο του μεσημεριού [Ν. 
TTITLE1=Μαμαγκάκης-Ντ. Δημόπουλος]
TTITLE2=Βουγιουκλάκη Αλίκη-Παπαμιχαήλ Δημήτρης - Αλητάκι μπατιράκι [Ν. Μαμαγκά
TTITLE2=κης-Ντ. Δημόπουλος]
TTITLE3=Βουγιουκλάκη Αλίκη - Ποιος, ποιος, ποιος [Γ. Κατσαρός-Πυθαγόρας]
TTITLE4=Βουγιουκλάκη Αλίκη-Παπαμιχαήλ Δημήτρης - Γείρε την πέτρα [Γ. Κατσαρός-
TTITLE4=Πυθαγόρας]
TTITLE5=Βουγιουκλάκη Αλίκη - Άναψε μέσα μου φωτιά [Ν. Μαμαγκάκης-Ντ. Δημόπουλο
TTITLE5=ς]
TTITLE6=Βουγιουκλάκη Αλίκη - Γεννήθηκα στον Πειραιά [Γ. Κατσαρός-Πυθαγόρας]
TTITLE7=Βουγιουκλάκη Αλίκη - Ρίκο ρίκο ρικοκό (τ΄αγόρι μου)[Τ. Μωράκης-Γ. Γιαν
TTITLE7=νόπουλος]
TTITLE8=Βουγιουκλάκη Αλίκη-Τρίο Καντσόνε - Αλίκη cha cha cha [Τ. Μωράκης-Γ. Γι
TTITLE8=αννόπουλος]
TTITLE9=Βουγιουκλάκη Αλίκη - Αγάπη μου αγάπη μου [Γ. Ζαμπέτας-Δ. Χριστοδούλου]
TTITLE10=Βουγιουκλάκη Αλίκη-χορωδία ηθοποιών - Λούνα πάρκ [Γ. Ζαμπέτας-Διον. Τ
TTITLE10=ζεφρώνης]
TTITLE11=Βουγιουκλάκη Αλίκη - Όσα δώσεις στην αγάπη [Ν. Καλλίτσης-Κ. Λιακάκος]
TTITLE12=Βουγιουκλάκη Αλίκη-Παπαμιχαήλ Δημήτρης - Αλίμονο στα νιάτα μου [Ν. Κα
TTITLE12=λλίτσης-Κ. Λιακάκος]
EXTD=
EXTT0=
EXTT1=
EXTT2=
EXTT3=
EXTT4=
EXTT5=
EXTT6=
EXTT7=
EXTT8=
EXTT9=
EXTT10=
EXTT11=
EXTT12=
PLAYORDER=
